<svg xmlns="http://www.w3.org/2000/svg" viewBox="0 0 110.95 95.84"><defs><style>.cls-1{fill:#d8d8d8;stroke-width:4px;}.cls-1,.cls-2,.cls-4,.cls-5{stroke:#000;stroke-miterlimit:10;}.cls-2{fill:#fff;}.cls-3{fill:#020202;}.cls-4{fill:none;}.cls-5{fill:#cecece;}.cls-6{fill:#f4f4f4;}</style></defs><title>SVG_Boomer</title><g id="Sheild"><polygon class="cls-1" points="3.25 16.82 51.01 2.1 97.43 16.82 85.6 75.3 50.34 93.6 13.52 75.3 3.25 16.82"/><path class="cls-2" d="M50.34,2.1"/><polygon class="cls-3" points="9.28 20.85 50.34 8.12 91.39 20.85 81.08 71.84 50.33 87.79 18.23 71.84 9.28 20.85"/><path class="cls-2" d="M50.34,8.12"/><path class="cls-2" d="M50.34,87.79"/><path class="cls-2" d="M9.27,20.84"/><path class="cls-4" d="M91.4,20.84"/><path class="cls-4" d="M9.27,20.84"/><path class="cls-4" d="M81.14,72"/><path class="cls-4" d="M18.2,72"/></g><g id="Base"><path class="cls-5" d="M1.25,31.1c-1.46-2.34-.44,5.27.13,8C4.23,52.56,9.5,76.22,23.79,77.73,37.38,79.17,93.33,47.11,109,32.21c3.27-3.11.24-2.22-.91-1.86C94.48,34.68,53.25,51.1,32.25,57.1,13.61,62.42,6.45,39.43,1.25,31.1Z"/></g><g id="BaseH"><path class="cls-6" d="M99.75,35.6s-57,29-73,27c-12.43-1.56-15-8-15-8s1.45,17.23,15,17,60-26,60-26S98,39,99.75,35.6Z"/></g></svg>