<svg xmlns="http://www.w3.org/2000/svg" viewBox="0 0 98.77 119.08"><defs><style>.cls-1{fill:#d8d8d8;stroke-width:4px;}.cls-1,.cls-2,.cls-4{stroke:#000;}.cls-1,.cls-2,.cls-4,.cls-5,.cls-6,.cls-8{stroke-miterlimit:10;}.cls-2{fill:#fff;}.cls-3{fill:#020202;}.cls-4{fill:none;}.cls-5{fill:#cecece;}.cls-5,.cls-6,.cls-8{stroke:#020202;stroke-width:0.5px;}.cls-6{fill:#d68922;}.cls-7{fill:#f4f4f4;}.cls-8{fill:#e2e2e2;}.cls-9{fill:#f7f7f7;}.cls-10{fill:#828181;}</style></defs><title>SVG_Fire</title><g id="Sheild"><polygon class="cls-1" points="2.27 38.06 50.03 23.33 96.45 38.06 84.63 96.53 49.36 114.83 12.54 96.53 2.27 38.06"/><path class="cls-2" d="M49.36,23.33"/><polygon class="cls-3" points="8.3 42.09 49.36 29.36 90.42 42.09 80.11 93.07 49.36 109.03 17.25 93.07 8.3 42.09"/><path class="cls-2" d="M49.36,29.36"/><path class="cls-2" d="M49.36,109"/><path class="cls-2" d="M8.3,42.08"/><path class="cls-4" d="M90.43,42.08"/><path class="cls-4" d="M8.3,42.08"/><path class="cls-4" d="M80.16,93.18"/><path class="cls-4" d="M17.23,93.18"/></g><g id="Stick"><path class="cls-5" d="M44.52,62.32,16.27,110.68s2.33,10.14,13.93,7.8L56.9,65.05,46.84,59.2Z"/><path class="cls-5" d="M39.6,46.56l-3.11,6.22s8.94,15.94,34.6,15.94l2.72-5Z"/><path class="cls-6" d="M74,64c-1.39,2.84-10.24,1.38-19.78-3.27S38.08,50,39.47,47.12s10.24-1.38,19.77,3.27S75.38,61.11,74,64Z"/></g><g id="StickH"><path class="cls-7" d="M74,64c-1.39,2.84-10.24,1.38-19.78-3.27S38.08,50,39.47,47.12s10.24-1.38,19.77,3.27S75.38,61.11,74,64Z"/><path class="cls-7" d="M46,63.86l-27.6,48.6s2.25,5.28,7.39,5.05L52.23,67.36A17.75,17.75,0,0,1,46,63.86Z"/></g><g id="Fire"><path class="cls-8" d="M47,34.12C55.12,19.88,69.53,25.18,67.2,10.8c0,0,27.08,20.8,9.72,43.15,0,0-10.38,9.79-23.19,2.63a16.78,16.78,0,0,1-8.54-17.51A15.47,15.47,0,0,1,47,34.12Z"/></g><g id="FireH"><path class="cls-9" d="M67.2,10.8s6.22,9.72-3.11,20.6S47.61,42.13,52.62,55.7c0,0-12.19-8.53-5.42-21.65a14,14,0,0,1,3.69-4.49,86.13,86.13,0,0,1,13-8.46A9,9,0,0,0,67.2,10.8Z"/></g><g id="FireS"><path class="cls-10" d="M67.2,11.19s16.13,23.52-6.41,47.62c0,0,19.82,3.11,21.94-19.81C82.73,39,82.94,23.43,67.2,11.19Z"/><path class="cls-8" d="M71.92,8C71.6,3.89,75.36,3,72.84.29c0,0,8.59.51,8.13,7.63a5.1,5.1,0,0,1-4.47,3.83A4.23,4.23,0,0,1,72.24,9.3,3.71,3.71,0,0,1,71.92,8Z"/><path class="cls-9" d="M72.84.29A4.39,4.39,0,0,1,75.1,5c-.4,3.59-1.92,4.57,1.05,6.69A4.28,4.28,0,0,1,72,8a3.44,3.44,0,0,1,.14-1.46A22.55,22.55,0,0,1,73.6,2.9,2.24,2.24,0,0,0,72.84.29Z"/><path class="cls-10" d="M72.89.37s6.7,2.62,5.4,10.85c0,0,4.58-2.16,1.78-7.24A9.46,9.46,0,0,0,72.89.37Z"/><path class="cls-8" d="M64.17,10.29c-.44-3-3.29-3.07-1.91-5.4,0,0-6.1,1.76-4.61,6.8a3.75,3.75,0,0,0,3.83,2,3.11,3.11,0,0,0,2.66-2.45A2.9,2.9,0,0,0,64.17,10.29Z"/><path class="cls-10" d="M62.26,4.89a3.23,3.23,0,0,0-.86,3.77c.87,2.52,2.12,3,.33,5a3.17,3.17,0,0,0,2.41-3.38,2.47,2.47,0,0,0-.34-1,15.59,15.59,0,0,0-1.67-2.35A1.66,1.66,0,0,1,62.26,4.89Z"/><path class="cls-9" d="M62.23,5a7.07,7.07,0,0,0-2.12,8.66s-3.64-.8-2.45-4.91A7,7,0,0,1,62.23,5Z"/></g></svg>