<svg xmlns="http://www.w3.org/2000/svg" viewBox="0 0 99.38 95.84"><defs><style>.cls-1{fill:#d8d8d8;stroke-width:4px;}.cls-1,.cls-2,.cls-4,.cls-5{stroke:#000;stroke-miterlimit:10;}.cls-2{fill:#fff;}.cls-3{fill:#020202;}.cls-4{fill:#d1d1d1;}.cls-4,.cls-5{stroke-width:0.5px;}.cls-5,.cls-6{fill:#f4f4f4;}.cls-7{fill:#f9a541;}</style></defs><title>SVG_Hammer</title><g id="Shield"><polygon class="cls-1" points="2.89 16.82 50.65 2.1 97.07 16.82 85.24 75.3 49.98 93.6 13.15 75.3 2.89 16.82"/><path class="cls-2" d="M50,2.1"/><polygon class="cls-3" points="8.91 20.85 49.98 8.12 91.03 20.85 80.72 71.84 49.97 87.79 17.87 71.84 8.91 20.85"/></g><g id="Base"><path class="cls-4" d="M48.26,41,86.65,11.56a6,6,0,0,1,8.33,1c1.58,1.87,2.71,4.27,1.69,6.81-2.3,5.71-43.37,36.9-43.37,36.9L40.82,51.69Z"/><path class="cls-4" d="M1.09,52.5,23.77,89.24a4.52,4.52,0,0,0,4.34,2.12c6.75-.79,23.83-4.66,36.3-23.52a4.71,4.71,0,0,0,.09-5L43,27Z"/></g><g id="Highlight"><ellipse class="cls-5" cx="21.65" cy="38.73" rx="25.11" ry="7.55" transform="translate(-17.69 18.22) rotate(-33.26)"/><path class="cls-6" d="M15.93,52.13S31.56,44.5,38.67,37.5l19.8,34.17S48.55,84,36,87.43Z"/><path class="cls-7" d="M-122.61,276.6"/><path class="cls-6" d="M54.64,39.81,86.9,14.73s8.55-.35,4.9,4.71S58.12,47,58.12,47Z"/></g></svg>