<svg xmlns="http://www.w3.org/2000/svg" viewBox="0 0 100.67 95.84"><defs><style>.cls-1{fill:#d8d8d8;stroke-width:4px;}.cls-1,.cls-2,.cls-4,.cls-5,.cls-7{stroke:#000;stroke-miterlimit:10;}.cls-2{fill:#fff;}.cls-3{fill:#020202;}.cls-4{fill:#8c8c8c;}.cls-4,.cls-5,.cls-7{stroke-width:0.5px;}.cls-5{fill:#9e9e9e;}.cls-6{fill:#b2b2b2;}.cls-7{fill:#1e1e1e;}</style></defs><title>SVG_Cap</title><g id="Shield"><polygon class="cls-1" points="2.27 16.82 50.03 2.1 96.45 16.82 84.63 75.3 49.36 93.6 12.54 75.3 2.27 16.82"/><path class="cls-2" d="M49.36,2.1"/><polygon class="cls-3" points="8.3 20.85 49.36 8.12 90.42 20.85 80.11 71.84 49.36 87.79 17.25 71.84 8.3 20.85"/></g><g id="Tail"><path class="cls-4" d="M34.66,71.44s-10.48,8.1-32.39,5.72c0,0,15.24-17.15,10-29-7.93-18,23.89-43,33.81-41.44"/></g><g id="Base"><path class="cls-5" d="M42.28,72.39,100.38,41s-6.67-29-45.24-34.29c-22-3-30.54,12-33.79,25.44a49,49,0,0,0,6.49,38.63C31.44,76.18,35.85,70.25,42.28,72.39Z"/></g><g id="BaseH"><path class="cls-6" d="M48,13.34a20.84,20.84,0,0,1,21-1.43c11.43,5.72,21.43,17.15,21.43,17.15s-27.62-1-32.86,3.81C57.52,32.87,58,20,48,13.34Z"/></g><g id="Hole"><ellipse class="cls-7" cx="63.96" cy="54.48" rx="38.87" ry="17.26" transform="translate(-16.26 29.49) rotate(-23.12)"/></g></svg>