<svg xmlns="http://www.w3.org/2000/svg" viewBox="0 0 98.77 97.77"><defs><style>.cls-1{fill:#d8d8d8;stroke-width:4px;}.cls-1,.cls-2,.cls-4,.cls-5,.cls-7,.cls-9{stroke:#000;stroke-miterlimit:10;}.cls-2{fill:#fff;}.cls-3{fill:#020202;}.cls-4{fill:#ededed;}.cls-4,.cls-5,.cls-7,.cls-9{stroke-width:0.5px;}.cls-5{fill:#848484;}.cls-6{fill:#f4f8f9;}.cls-7{fill:#c9c9c9;}.cls-8{fill:#f7f5f5;}.cls-9{fill:#d1d1d1;}.cls-10{fill:#f2f2f2;}</style></defs><title>SVG_Potion</title><g id="Shield"><polygon class="cls-1" points="2.27 18.76 50.03 4.03 96.45 18.76 84.63 77.23 49.36 95.53 12.54 77.23 2.27 18.76"/><path class="cls-2" d="M49.36,4"/><polygon class="cls-3" points="8.3 22.79 49.36 10.05 90.42 22.79 80.11 73.77 49.36 89.73 17.25 73.77 8.3 22.79"/></g><g id="Bottle"><path class="cls-4" d="M22.37,23.86,28.18,48.6S15.07,62.33,16,72.61c.89,10.09,7.8,28.6,40,20.13S77.38,58.9,77.38,58.9a33.47,33.47,0,0,0-22.7-15.45L48.37,15.64Z"/><path class="cls-4" d="M21.46,15s-4.07.83-4.43,2.93c-.24,1.39,1.35,5.81,2.45,8.64a4.67,4.67,0,0,0,3.84,2.95c4.85.52,15.46.48,28.2-6.75a4.63,4.63,0,0,0,2.33-4.6C53.4,14.54,51.71,9.2,45.68,10,36.68,11.23,21.46,15,21.46,15Z"/></g><g id="PotionS"><path class="cls-5" d="M19.33,61.17S60.12,50.68,76,56.75c0,0,6,12-1.06,14.62s-48,1.11-48,1.11Z"/></g><g id="BottleH"><path class="cls-6" d="M20.75,19.18s1.7,1.93,12.85-1c0,0-1,6.8.51,6.68,0,0-7.06,2.09-11.3.87A7.27,7.27,0,0,1,20.75,19.18Z"/><path class="cls-6" d="M26.68,32.42a9.57,9.57,0,0,0,7.2-.55s1.78,11.31,3.64,13.68C38.66,47,31,47.61,29.84,46.66,29.84,46.66,25.93,36.1,26.68,32.42Z"/></g><g id="Potion"><path class="cls-7" d="M19.1,61.14S47.82,72.85,76.83,58c0,0,5.22,15.23-1.78,23.36S53.15,94,49.41,94.16s-18.68,2.39-27-6.3S15.2,67.07,19.1,61.14Z"/></g><g id="PotionH"><circle class="cls-8" cx="31.9" cy="80.11" r="6.7"/><circle class="cls-8" cx="64.65" cy="75.52" r="5.16"/><circle class="cls-8" cx="46.81" cy="72.24" r="2.58"/><circle class="cls-8" cx="21.19" cy="68.53" r="1.55"/><circle class="cls-8" cx="50.21" cy="89.56" r="2.06"/><circle class="cls-8" cx="74.41" cy="64.69" r="1.8"/></g><g id="Cork"><path class="cls-9" d="M22.64,17,19.76,6.32l23.41-4.9L46,11A31,31,0,0,1,22.64,17Z"/></g><g id="CorkH"><path class="cls-10" d="M23.65,7.49c-2.6,0-3.65-.5-3.75-1s.59-1.35,2.87-2.47a39.17,39.17,0,0,1,8.11-2.71,39.57,39.57,0,0,1,8.4-1.1c2.6,0,3.64.5,3.75,1,.27,1.19-4.17,3.61-11,5.17A39.41,39.41,0,0,1,23.65,7.49Z"/><path d="M39.28.5h0c2.63,0,3.44.51,3.5.77.19.8-3.36,3.17-10.8,4.88a39.48,39.48,0,0,1-8.33,1.09c-2.64,0-3.45-.5-3.51-.77-.18-.8,3.37-3.17,10.8-4.88A39.56,39.56,0,0,1,39.28.5m0-.5a39.63,39.63,0,0,0-8.45,1.11C24.31,2.6,19.3,5.05,19.65,6.58c.18.77,1.7,1.16,4,1.16a40.27,40.27,0,0,0,8.45-1.1c6.52-1.5,11.52-3.95,11.17-5.48C43.09.39,41.58,0,39.28,0Z"/></g></svg>