<svg xmlns="http://www.w3.org/2000/svg" viewBox="0 0 99.04 107.89"><defs><style>.cls-1{fill:#d8d8d8;stroke-width:4px;}.cls-1,.cls-2,.cls-4,.cls-5,.cls-7{stroke:#000;stroke-miterlimit:10;}.cls-2{fill:#fff;}.cls-3{fill:#020202;}.cls-4{fill:#d1d1d1;}.cls-4,.cls-5,.cls-7{stroke-width:0.5px;}.cls-5{fill:#919191;}.cls-6{fill:#f4f4f4;}.cls-7{fill:#ccc;}.cls-8{fill:#e2e1e0;}</style></defs><title>SVG_Bow</title><g id="Layer_1" data-name="Layer 1"><polygon class="cls-1" points="2.55 28.88 50.31 14.15 96.72 28.88 84.9 87.35 49.64 105.65 12.81 87.35 2.55 28.88"/><path class="cls-2" d="M49.64,14.15"/><polygon class="cls-3" points="8.57 32.91 49.64 20.18 90.69 32.91 80.38 83.89 49.63 99.85 17.52 83.89 8.57 32.91"/></g><g id="Bow"><polygon class="cls-4" points="6.83 47.98 81.43 94.03 83.27 90.35 8.67 44.3 6.83 47.98"/><path class="cls-4" d="M34.41.14S77.3,64.08,70.56,83.19C63.42,103.47,0,94,0,94s56.38-1.18,58.41-18S34.41.14,34.41.14Z"/><line class="cls-5" x1="39.73" y1="12.76" x2="12.36" y2="93.31"/></g><g id="BowH"><path class="cls-6" d="M61.86,69.16c1.85-11.79-18.08-50.44-18.08-50.44l-2.4-6.08s23.79,42.84,26,55.09l1.71,7.16Z"/><path class="cls-6" d="M15.17,94.37s32.78,1.95,42.69-4V84.33S43.15,91.94,15.17,94.37Z"/><path class="cls-6" d="M27,58.75l28.22,18a1.8,1.8,0,0,1,.88-1.88l-28-17.26S27,57,27,58.75Z"/></g><g id="Head"><polygon class="cls-7" points="71.28 100.7 80.45 76.77 89.07 96.65 71.28 100.7"/></g><g id="HeadH"><polygon class="cls-8" points="77.54 89.56 72.89 99.18 87.42 95.54 77.54 89.56"/></g></svg>