<svg xmlns="http://www.w3.org/2000/svg" viewBox="0 0 104.27 118.89"><defs><style>.cls-1{fill:#d8d8d8;stroke-width:4px;}.cls-1,.cls-2,.cls-4{stroke:#000;}.cls-1,.cls-10,.cls-11,.cls-2,.cls-4,.cls-5,.cls-6,.cls-8,.cls-9{stroke-miterlimit:10;}.cls-2{fill:#fff;}.cls-3{fill:#020202;}.cls-4,.cls-9{fill:none;}.cls-5{fill:#cccbca;}.cls-10,.cls-11,.cls-5,.cls-6,.cls-8,.cls-9{stroke:#020202;stroke-width:0.25px;}.cls-6{fill:#d68922;}.cls-7{fill:#f4f4f4;}.cls-8{fill:#dbdbdb;}.cls-10{fill:#f2f4f4;}.cls-11{fill:#adadad;}</style></defs><title>SVG_Ice</title><g id="Sheild"><polygon class="cls-1" points="7.78 39.87 55.54 25.14 101.96 39.87 90.13 98.34 54.87 116.64 18.04 98.34 7.78 39.87"/><path class="cls-2" d="M54.87,25.14"/><polygon class="cls-3" points="13.8 43.9 54.87 31.17 95.92 43.9 85.61 94.89 54.86 110.84 22.75 94.89 13.8 43.9"/><path class="cls-2" d="M54.87,31.17"/><path class="cls-2" d="M54.87,110.84"/><path class="cls-2" d="M13.8,43.89"/><path class="cls-4" d="M95.93,43.89"/><path class="cls-4" d="M13.8,43.89"/><path class="cls-4" d="M85.66,95"/><path class="cls-4" d="M22.73,95"/></g><g id="Stick"><path class="cls-5" d="M59.32,64.49l27.07,46.34s-2.23,9.72-13.35,7.48L47.46,67.1l9.64-5.6Z"/><path class="cls-5" d="M64,49.39l3,6s-7.37,15.85-31,16.4a2.11,2.11,0,0,1-1.86-1l-2.94-4.94Z"/><path class="cls-6" d="M31.08,66.06c1.33,2.72,9.81,1.32,19-3.13s15.46-10.28,14.13-13-9.81-1.33-18.95,3.13S29.75,63.33,31.08,66.06Z"/></g><g id="StickH"><path class="cls-7" d="M31.08,66.06c1.33,2.72,9.81,1.32,19-3.13s15.46-10.28,14.13-13-9.81-1.33-18.95,3.13S29.75,63.33,31.08,66.06Z"/><path class="cls-7" d="M57.89,66l26.45,46.56s-2.15,5.07-7.08,4.85L51.93,69.32A17.15,17.15,0,0,0,57.89,66Z"/></g><g id="Ice"><polygon class="cls-8" points="34.15 66.11 62.89 52.16 61.28 37.4 26.27 14.44 24.22 55.95 34.15 66.11"/><line class="cls-9" x1="24.21" y1="55.59" x2="61.02" y2="37.19"/><line class="cls-9" x1="90.01" y1="51.69" x2="90.01" y2="51.69"/><polygon class="cls-10" points="49.82 58.51 43.73 46.11 37.04 48.9 49.82 58.51"/><polygon class="cls-10" points="49.86 58.38 49.86 42.76 43.73 46.11 49.86 58.38"/><polygon class="cls-8" points="34.08 6.46 30.32 5.46 29.43 8.88 29.01 5.24 25.7 5.33 28.82 4.24 27.92 0.68 30.01 3.84 33.03 1.36 31 4.44 34.08 6.46"/><polygon class="cls-8" points="20.06 30.34 11.42 28.05 9.39 35.92 8.43 27.53 0.8 27.75 7.97 25.24 5.91 17.06 10.71 24.33 17.66 18.62 13 25.7 20.06 30.34"/></g><g id="IceS"><polygon class="cls-11" points="61.02 37.19 56 39.98 57.11 55.03 62.69 52.24 61.02 37.19"/><polygon class="cls-11" points="23.93 55.58 29.79 52.8 40.94 62.84 34.25 66.19 23.93 55.58"/><polygon class="cls-11" points="24.21 56.15 29.79 52.8 26.44 14.32 24.21 56.15"/><polygon class="cls-11" points="56 39.98 26.44 14.32 61.02 37.19 56 39.98"/></g><g id="IceH"><polygon class="cls-10" points="37.2 49.09 26.44 14.32 43.48 45.96 37.2 49.09"/><polygon class="cls-10" points="49.82 42.79 26.44 14.32 43.73 46.11 49.82 42.79"/></g></svg>