<svg xmlns="http://www.w3.org/2000/svg" viewBox="0 0 103.44 95.84"><defs><style>.cls-1{fill:#d8d8d8;stroke-width:4px;}.cls-1,.cls-10,.cls-11,.cls-2,.cls-4,.cls-8,.cls-9{stroke:#000;stroke-miterlimit:10;}.cls-2{fill:#fff;}.cls-3{fill:#020202;}.cls-4{fill:#cecdcc;}.cls-10,.cls-11,.cls-4,.cls-8,.cls-9{stroke-width:0.5px;}.cls-5{fill:#f2f2f2;}.cls-6{fill:#7a7a7a;}.cls-11,.cls-7{fill:#ddd;}.cls-8{fill:#ededed;}.cls-9{fill:#939393;}.cls-10{fill:#b7b7b7;}</style></defs><title>SVG_Hook</title><g id="Layer_1" data-name="Layer 1"><polygon class="cls-1" points="6.94 16.82 54.7 2.1 101.12 16.82 89.29 75.3 54.03 93.6 17.21 75.3 6.94 16.82"/><path class="cls-2" d="M54,2.1"/><polygon class="cls-3" points="12.97 20.85 54.03 8.12 95.09 20.85 84.77 71.84 54.03 87.79 21.92 71.84 12.97 20.85"/></g><g id="Handle"><path class="cls-4" d="M34.26,17.14.73,30.64,24.24,38.2l1.2.29,13-7.85ZM24,33.43H22.62L11.44,29.24l20-7.91,2.33,6.05Z"/></g><g id="HandleH"><polygon class="cls-5" points="16.52 34.31 3.52 30.31 9.24 28.22 23.52 22.31 28.52 21.31 8.35 29.61 17.52 33.31 16.52 34.31"/></g><g id="BodyS"><path class="cls-6" d="M17,51.13s-3.72-3.26-1.4-12.57S47.76,53.45,47.76,53.45s-5.12,9.32,0,13.51Z"/></g><g id="Body"><path class="cls-7" d="M15.63,38.56s7.45-14.9,27.47-14.44L79.89,38.56S60.33,33.9,46.83,54.85A257.94,257.94,0,0,1,15.63,38.56Z"/></g><g id="BodyH"><ellipse class="cls-8" cx="63.95" cy="53.14" rx="23.93" ry="14.76" transform="matrix(0.95, -0.32, 0.32, 0.95, -13.71, 23.42)"/></g><g id="HeadS"><path class="cls-9" d="M62.51,59.1s-1.1-1-.42-3.72,9.51,4.41,9.51,4.41-1.52,2.76,0,4Z"/></g><g id="Head"><path class="cls-10" d="M62.09,55.38a8.8,8.8,0,0,1,8.13-4.27L81.1,55.38S75.32,54,71.32,60.2A75.91,75.91,0,0,1,62.09,55.38Z"/><path class="cls-10" d="M83.09,57.42c.77,2.28-1.6,5.15-5.3,6.41s-7.33.43-8.1-1.85,1.59-5.16,5.29-6.42S82.31,55.14,83.09,57.42Z"/><polygon class="cls-10" points="49.73 66.14 98.73 70.14 98.73 50.14 49.73 66.14"/></g><g id="HeadH"><path class="cls-11" d="M51.75,65.48c1-.34,39-4.34,39-4.34l8,9Z"/><polygon class="cls-11" points="90.73 61.14 98.73 70.14 98.73 50.14 90.73 61.14"/></g></svg>