<svg xmlns="http://www.w3.org/2000/svg" viewBox="0 0 98.81 101.97"><defs><style>.cls-1{fill:#d8d8d8;stroke-width:4px;}.cls-1,.cls-2,.cls-4,.cls-5,.cls-6{stroke:#000;}.cls-1,.cls-2,.cls-4,.cls-5,.cls-6,.cls-7{stroke-miterlimit:10;}.cls-2{fill:#fff;}.cls-3{fill:#020202;}.cls-4,.cls-7,.cls-8{fill:#cecece;}.cls-4,.cls-5,.cls-6,.cls-7{stroke-width:0.5px;}.cls-5{fill:#ededed;}.cls-6{fill:#b9b9ba;}.cls-7{stroke:#020202;}.cls-9{fill:#f4f4f4;}.cls-10{fill:#aa71f4;}</style></defs><title>SVG_Sword</title><g id="Shield"><polygon class="cls-1" points="2.31 22.95 50.07 8.22 96.49 22.95 84.67 81.42 49.4 99.72 12.58 81.42 2.31 22.95"/><path class="cls-2" d="M49.4,8.22"/><polygon class="cls-3" points="8.34 26.98 49.4 14.25 90.46 26.98 80.15 77.97 49.4 93.92 17.29 77.97 8.34 26.98"/></g><g id="BladeS"><path class="cls-4" d="M25.91,60.06,71.11,7.31S78.15.47,91.32.38L36.07,64.85Z"/></g><g id="Blade"><path class="cls-5" d="M43.09,73.73l45.1-52.82S93.82,13,91.33.55L36.2,65.11Z"/></g><g id="HandleS"><path class="cls-6" d="M27.25,62.73,7.84,86.5a13.51,13.51,0,0,0,12.28,9.93l19.69-24Z"/></g><g id="Handle"><path class="cls-7" d="M4.78,38l11,8.73s-5.88,4.52-2.38,11.06l12.54,2.27,10.29,5,6.89,8.62,4.2,11.06a12,12,0,0,0,15-1l10.83,8.62s-10.83,13.52-31-.21l-11.38-20L7.86,64.9S-7,50.58,4.78,38Z"/><path class="cls-8" d="M15.59,88.34s2.24,4.61,5.2,4.15l11.28-13s-1.68-4.78-5.29-4.6Z"/></g><g id="HandleH"><path class="cls-9" d="M35.68,65.53l-2.54,3.26L44.93,88.33S60.67,98,69.38,90.66L62.12,85s-4.32,5.11-15.2.75L42.43,74.2Z"/><path class="cls-10" d="M56.45,104.38"/><path class="cls-9" d="M7.38,43.39S1.64,52.71,8.51,59.26L32,67.82l2.73-2.68-9.18-4.08-13.2-2.75S7.92,47,13.85,47.26Z"/></g></svg>